<?xml version="1.0" standalone="no"?><!DOCTYPE svg PUBLIC "-//W3C//DTD SVG 1.1//EN" "http://www.w3.org/Graphics/SVG/1.1/DTD/svg11.dtd"><svg t="1589770649989" class="icon" viewBox="0 0 1024 1024" version="1.1" xmlns="http://www.w3.org/2000/svg" p-id="2767" xmlns:xlink="http://www.w3.org/1999/xlink" width="64" height="64"><defs><style type="text/css"></style></defs><path d="M479.573333 479.573333H134.826667c-37.546667 0-68.266667-30.72-68.266667-68.266666V136.533333c0-37.546667 30.72-68.266667 68.266667-68.266666H409.6c37.546667 0 68.266667 30.72 68.266667 68.266666v343.04z" fill="#1296db" p-id="2768"></path><path d="M496.64 496.64H134.826667c-47.786667 0-85.333333-37.546667-85.333334-85.333333V136.533333c0-47.786667 37.546667-85.333333 85.333334-85.333333H409.6c47.786667 0 85.333333 37.546667 85.333333 85.333333v360.106667zM134.826667 85.333333c-29.013333 0-51.2 22.186667-51.2 51.2v274.773334c0 29.013333 22.186667 51.2 51.2 51.2H460.8V136.533333c0-29.013333-22.186667-51.2-51.2-51.2H134.826667z" fill="#1296db" p-id="2769"></path><path d="M882.346667 479.573333H539.306667V136.533333c0-37.546667 30.72-68.266667 68.266666-68.266666h274.773334c37.546667 0 68.266667 30.72 68.266666 68.266666v274.773334c0 37.546667-30.72 68.266667-68.266666 68.266666z" fill="#1296db" p-id="2770"></path><path d="M882.346667 496.64H539.306667c-10.24 0-17.066667-6.826667-17.066667-17.066667V136.533333c0-47.786667 37.546667-85.333333 85.333333-85.333333h274.773334c47.786667 0 85.333333 37.546667 85.333333 85.333333v274.773334c0 47.786667-37.546667 85.333333-85.333333 85.333333z m-325.973334-34.133333h325.973334c29.013333 0 51.2-22.186667 51.2-51.2V136.533333c0-29.013333-22.186667-51.2-51.2-51.2H607.573333c-29.013333 0-51.2 22.186667-51.2 51.2v325.973334z" fill="#1296db" p-id="2771"></path><path d="M411.306667 952.32H134.826667c-37.546667 0-68.266667-30.72-68.266667-68.266667V607.573333c0-37.546667 30.72-68.266667 68.266667-68.266666H477.866667v343.04c1.706667 39.253333-29.013333 69.973333-66.56 69.973333z" fill="#1296db" p-id="2772"></path><path d="M411.306667 969.386667H134.826667c-47.786667 0-85.333333-37.546667-85.333334-85.333334V607.573333c0-47.786667 37.546667-85.333333 85.333334-85.333333H477.866667c10.24 0 17.066667 6.826667 17.066666 17.066667v343.04c1.706667 47.786667-37.546667 87.04-83.626666 87.04zM134.826667 556.373333c-29.013333 0-51.2 22.186667-51.2 51.2v274.773334c0 29.013333 22.186667 51.2 51.2 51.2H409.6c29.013333 0 51.2-22.186667 51.2-51.2V556.373333H134.826667z" fill="#1296db" p-id="2773"></path><path d="M882.346667 952.32H607.573333c-37.546667 0-68.266667-30.72-68.266666-68.266667V539.306667h343.04c37.546667 0 68.266667 30.72 68.266666 68.266666v274.773334c0 39.253333-30.72 69.973333-68.266666 69.973333z" fill="#1296db" p-id="2774"></path><path d="M882.346667 969.386667H607.573333c-47.786667 0-85.333333-37.546667-85.333333-85.333334V539.306667c0-10.24 6.826667-17.066667 17.066667-17.066667h343.04c47.786667 0 85.333333 37.546667 85.333333 85.333333v274.773334c0 47.786667-37.546667 87.04-85.333333 87.04zM556.373333 556.373333v325.973334c0 29.013333 22.186667 51.2 51.2 51.2h274.773334c29.013333 0 51.2-22.186667 51.2-51.2V607.573333c0-29.013333-22.186667-51.2-51.2-51.2H556.373333z" fill="#1296db" p-id="2775"></path></svg>